
<svg width="27" height="27" viewBox="0 0 27 27" fill="none" xmlns="http://www.w3.org/2000/svg">
<path d="M13.2611 26.6948C13.175 26.6948 13.0889 26.6948 13.0022 26.6944C10.9641 26.6994 9.081 26.6471 7.24964 26.5345C5.57062 26.4313 4.038 25.8451 2.81722 24.8396C1.63928 23.8692 0.834886 22.5573 0.426438 20.9405C0.0709559 19.5329 0.0521106 18.1512 0.0340587 16.8147C0.0209662 15.8558 0.00747691 14.7196 0.00469971 13.5641C0.00747691 12.4038 0.0209662 11.2676 0.0340587 10.3087C0.0521106 8.97244 0.0709559 7.59071 0.426438 6.18294C0.834886 4.56614 1.63928 3.25415 2.81722 2.28384C4.038 1.27825 5.57062 0.692096 7.24983 0.588893C9.0812 0.476471 10.9647 0.423967 13.0072 0.428977C15.0458 0.424568 16.9284 0.476471 18.7598 0.588893C20.4388 0.692096 21.9714 1.27825 23.1922 2.28384C24.3703 3.25415 25.1745 4.56614 25.583 6.18294C25.9384 7.59051 25.9573 8.97244 25.9753 10.3087C25.9884 11.2676 26.0021 12.4038 26.0047 13.5593V13.5641C26.0021 14.7196 25.9884 15.8558 25.9753 16.8147C25.9573 18.151 25.9386 19.5327 25.583 20.9405C25.1745 22.5573 24.3703 23.8692 23.1922 24.8396C21.9714 25.8451 20.4388 26.4313 18.7598 26.5345C17.006 26.6423 15.2043 26.6948 13.2611 26.6948ZM13.0022 24.6424C15.0072 24.6472 16.8481 24.5961 18.6364 24.4863C19.906 24.4083 21.0067 23.9921 21.9085 23.2492C22.7421 22.5625 23.3162 21.615 23.6147 20.4331C23.9107 19.2614 23.9277 18.0033 23.9442 16.7867C23.9571 15.8342 23.9706 14.706 23.9734 13.5617C23.9706 12.4172 23.9571 11.2892 23.9442 10.3367C23.9277 9.12013 23.9107 7.86205 23.6147 6.69014C23.3162 5.5082 22.7421 4.56073 21.9085 3.87398C21.0067 3.13131 19.906 2.71509 18.6364 2.63714C16.8481 2.52712 15.0072 2.47642 13.007 2.48083C11.0024 2.47602 9.16134 2.52712 7.37302 2.63714C6.10344 2.71509 5.00268 3.13131 4.10088 3.87398C3.26732 4.56073 2.69323 5.5082 2.39468 6.69014C2.09871 7.86205 2.08165 9.11993 2.06519 10.3367C2.05229 11.29 2.0388 12.4188 2.03603 13.5641C2.0388 14.7044 2.05229 15.8334 2.06519 16.7867C2.08165 18.0033 2.09871 19.2614 2.39468 20.4331C2.69323 21.615 3.26732 22.5625 4.10088 23.2492C5.00268 23.9919 6.10344 24.4081 7.37302 24.4861C9.16134 24.5961 11.0028 24.6474 13.0022 24.6424ZM12.9538 19.9744C9.45374 19.9744 6.60592 17.0977 6.60592 13.5617C6.60592 10.0257 9.45374 7.14904 12.9538 7.14904C16.4541 7.14904 19.3017 10.0257 19.3017 13.5617C19.3017 17.0977 16.4541 19.9744 12.9538 19.9744ZM12.9538 9.20109C10.5738 9.20109 8.63725 11.1574 8.63725 13.5617C8.63725 15.966 10.5738 17.9223 12.9538 17.9223C15.3341 17.9223 17.2704 15.966 17.2704 13.5617C17.2704 11.1574 15.3341 9.20109 12.9538 9.20109ZM20.0127 5.09699C19.1714 5.09699 18.4892 5.78595 18.4892 6.63603C18.4892 7.48611 19.1714 8.17507 20.0127 8.17507C20.8542 8.17507 21.5362 7.48611 21.5362 6.63603C21.5362 5.78595 20.8542 5.09699 20.0127 5.09699Z" fill="#fff"/>
</svg>
